<?xml version="1.0" standalone="no"?>
<!DOCTYPE svg PUBLIC "-//W3C//DTD SVG 1.1//EN" "http://www.w3.org/Graphics/SVG/1.1/DTD/svg11.dtd" >
<svg xmlns="http://www.w3.org/2000/svg" xmlns:xlink="http://www.w3.org/1999/xlink" version="1.1">
<metadata>
Created by FontForge 20170731 at Mon Dec 21 19:24:47 2015
 By Aleksey,,,
Bizarre Bizarre
</metadata>
<defs>
<font id="Form-Regular" horiz-adv-x="664" >
  <font-face 
    font-family="Form"
    font-weight="400"
    font-stretch="normal"
    units-per-em="1000"
    panose-1="0 0 5 0 0 0 0 0 0 0"
    ascent="775"
    descent="-225"
    x-height="490"
    cap-height="700"
    bbox="-70 -266 1132 961"
    underline-thickness="50"
    underline-position="-200"
    unicode-range="U+0020-203A"
  />
<missing-glyph horiz-adv-x="500" 
d="M0 0v700h500v-700h-500zM250 395l170 255h-340zM280 350l170 -255v510zM80 50h340l-170 255zM50 605v-510l170 255z" />
    <glyph glyph-name=".notdef" horiz-adv-x="500" 
d="M0 0v700h500v-700h-500zM250 395l170 255h-340zM280 350l170 -255v510zM80 50h340l-170 255zM50 605v-510l170 255z" />
    <glyph glyph-name=".null" horiz-adv-x="0" 
 />
    <glyph glyph-name="nonmarkingreturn" horiz-adv-x="333" 
 />
    <glyph glyph-name="space" unicode=" " horiz-adv-x="300" 
 />
    <glyph glyph-name="exclam" unicode="!" horiz-adv-x="351" 
d="M201 182h-51l-50 518h151zM173 89q25 0 45 -12.5t20 -39.5t-20 -39.5t-45 -12.5t-45 12.5t-20 39.5t20 39.5t45 12.5z" />
    <glyph glyph-name="numbersign" unicode="#" horiz-adv-x="795" 
d="M534 301h155l-30 -85h-155l-76 -216h-95l76 216h-126l-76 -216h-95l76 216h-148l30 85h148l37 104h-149l30 85h149l74 210h95l-74 -210h126l74 210h95l-74 -210h154l-30 -85h-154zM350 405l-37 -104h126l37 104h-126z" />
    <glyph glyph-name="quotesingle" unicode="'" horiz-adv-x="310" 
d="M113 674l91 56q26 -35 26 -94q0 -26 -7 -54t-14.5 -44t-11.5 -18l-93 -60l-24 40q28 20 39 49q10 22 10 55q0 38 -16 70z" />
    <glyph glyph-name="parenleft" unicode="(" horiz-adv-x="418" 
d="M284 723l62 -27q-101 -221 -101 -459q0 -260 103 -459l-68 -29q-140 236 -140 487q0 266 144 487z" />
    <glyph glyph-name="parenright" unicode=")" horiz-adv-x="418" 
d="M72 696l62 27q144 -221 144 -487q0 -251 -140 -487l-68 29q103 199 103 459q0 238 -101 459z" />
    <glyph glyph-name="asterisk" unicode="*" horiz-adv-x="403" 
d="M363 511l-31 -52l-109 73l9 -131h-61l10 132l-110 -74l-31 52l119 58l-119 58l31 52l109 -74l-9 132h61l-9 -131l109 73l31 -52l-119 -58z" />
    <glyph glyph-name="comma" unicode="," horiz-adv-x="294" 
d="M82 73l87 53q25 -34 25 -90q0 -25 -6.5 -51.5t-14 -42t-11.5 -17.5l-88 -56l-24 38q29 22 37 46q10 22 10 55q0 35 -15 65z" />
    <glyph glyph-name="hyphen" unicode="-" horiz-adv-x="292" 
d="M219 190h-189l43 99h189z" />
    <glyph glyph-name="period" unicode="." horiz-adv-x="290" 
d="M145 89q25 0 45 -12.5t20 -39.5t-20 -39.5t-45 -12.5t-45 12.5t-20 39.5t20 39.5t45 12.5z" />
    <glyph glyph-name="slash" unicode="/" horiz-adv-x="413" 
d="M95 -93h-90l313 823h90z" />
    <glyph glyph-name="zero" unicode="0" horiz-adv-x="595" 
d="M97 579l199 136q92 -10 158 -89t76 -182q5 -53 5 -94q0 -123 -37 -230l-199 -136q-91 10 -157.5 88.5t-76.5 182.5q-5 53 -5 94q0 123 37 230zM225 628q-43 -112 -43 -235q0 -77 19 -137q30 -126 169 -185q42 111 42 236q0 73 -17 136q-30 125 -170 185z" />
    <glyph glyph-name="one" unicode="1" horiz-adv-x="362" 
d="M297 0h-148l-1 562h-93l242 150v-712z" />
    <glyph glyph-name="two" unicode="2" horiz-adv-x="467" 
d="M248 710q76 0 124 -47t48 -117q0 -10 -1 -15q-3 -46 -29 -92l-186 -306h223l-40 -133h-347l246 394q30 49 30 93q0 52 -39.5 85t-104.5 33q-42 0 -85 -14l84 107q36 12 77 12z" />
    <glyph glyph-name="three" unicode="3" horiz-adv-x="468" 
d="M345 345q73 -71 73 -167q0 -39 -13 -78l-190 -112q-51 -2 -101 12t-84 41l97 90q27 -23 68.5 -37.5t78.5 -14.5q9 0 23 2q2 22 2 32q0 98 -57 147.5t-149 49.5q-3 0 -10 -0.5t-11 -0.5l115 115q36 -6 66 -19q25 43 25 87q0 53 -35.5 89t-94.5 36q-14 0 -21 -1
q-30 -3 -58 -14l84 107q22 3 44 3q84 0 140 -48.5t63 -117.5q1 -8 1 -25q0 -101 -56 -176z" />
    <glyph glyph-name="four" unicode="4" horiz-adv-x="599" 
d="M444 279h90v-65h-90v-214h-138v215h-261l245 453l-17 32h171v-421zM152 279h154v284z" />
    <glyph glyph-name="five" unicode="5" horiz-adv-x="474" 
d="M387 568h-224l1 -110q97 -2 161 -47.5t92 -121.5q17 -44 17 -108l-3 -63l-216 -125q-21 -3 -48 -3q-110 0 -167 75l105 93q23 -32 62 -54t77 -22q28 0 50 13q20 40 20 80q0 66 -47.5 114t-125.5 48h-9q-22 -2 -35 -4v367h325z" />
    <glyph glyph-name="six" unicode="6" horiz-adv-x="549" 
d="M345 712q44 0 84 -18.5t60 -48.5l-99 -92q-60 66 -115 66q-9 0 -27 -4q-48 -95 -57 -194l83 56q53 1 95.5 -16.5t68 -45.5t42 -66.5t23 -74.5t6.5 -73q0 -48 -11 -81l-70 -46l-133 -86q-37 0 -77.5 24.5t-76 66.5t-58.5 109t-23 143q0 116 54 242l190 135q17 4 41 4z
M213 367q-8 0 -24 -2q1 -108 54.5 -186t133.5 -101q12 38 14 81q1 88 -50.5 148t-127.5 60z" />
    <glyph glyph-name="seven" unicode="7" horiz-adv-x="478" 
d="M234 0h-70l156 562h-290l39 138h359z" />
    <glyph glyph-name="eight" unicode="8" horiz-adv-x="486" 
d="M282 711q64 0 103.5 -52t34.5 -119q-7 -96 -113 -163q71 -37 100 -92q19 -29 19 -68q0 -62 -38 -108l-178 -119q-65 3 -107.5 48.5t-42.5 111.5q0 35 13 70q19 51 85 105q-28 21 -41 31.5t-32.5 41.5t-21.5 67q-5 73 31 135l163 109q9 2 25 2zM215 609h-4q-28 -2 -56 -13
q-1 -8 -1 -23q0 -70 40 -113q26 -31 74 -61q40 32 51 91q1 5 1 16q0 43 -29.5 73t-75.5 30zM195 300q-38 -38 -38 -91q0 -22 6 -40q15 -37 47 -56t68 -19q27 0 47 11q1 7 1 21q0 59 -28 91q-31 37 -103 83z" />
    <glyph glyph-name="nine" unicode="9" horiz-adv-x="569" 
d="M141 626l133 86q37 0 77.5 -24.5t76 -66.5t58.5 -109t23 -143q0 -116 -54 -242l-190 -135q-17 -4 -41 -4q-44 0 -84 18.5t-60 48.5l99 92q60 -66 115 -66q9 0 27 4q48 97 57 195l-83 -57q-53 -1 -95.5 16.5t-68 45.5t-42 66.5t-23 74.5t-6.5 73q0 48 11 81zM192 622
q-12 -38 -14 -81q-1 -88 50.5 -148t127.5 -60q8 0 24 2q-1 108 -54.5 186t-133.5 101z" />
    <glyph glyph-name="colon" unicode=":" horiz-adv-x="290" 
d="M145 490q25 0 45 -12.5t20 -39.5q0 -26 -20 -38.5t-45 -12.5t-45 12.5t-20 38.5q0 27 20 39.5t45 12.5zM145 88q25 0 45 -12.5t20 -38.5q0 -27 -20 -39.5t-45 -12.5t-45 12.5t-20 39.5q0 26 20 38.5t45 12.5z" />
    <glyph glyph-name="semicolon" unicode=";" horiz-adv-x="294" 
d="M124 490q26 0 46 -12.5t20 -39.5t-20.5 -39.5t-45.5 -12.5q-24 0 -44 12.5t-20 39.5t19.5 39.5t44.5 12.5zM82 75l87 53q25 -34 25 -90q0 -25 -6.5 -51.5t-14 -42t-11.5 -17.5l-88 -56l-24 38q29 22 37 46q10 22 10 55q0 35 -15 65z" />
    <glyph glyph-name="question" unicode="?" horiz-adv-x="395" 
d="M162 701q113 0 154 -49q37 -44 39 -94v-2q0 -37 -21 -78t-51.5 -77.5t-61 -72.5t-51.5 -75t-21 -72q0 -2 0.5 -6t0.5 -6h-53q-3 16 -3 34q0 41 20 88.5t38 74.5t52 72q36 48 36 101q0 44 -31.5 72.5t-99.5 28.5v60q8 0 26 0.5t27 0.5zM124 90q26 0 46 -12.5t20 -39.5
t-20.5 -39.5t-45.5 -12.5q-24 0 -44 12.5t-20 39.5t19.5 39.5t44.5 12.5z" />
    <glyph glyph-name="A" unicode="A" 
d="M662 0h-158l-91 242h-238l-86 -242h-90l233 661l-24 39h189zM206 328h176l-90 241z" />
    <glyph glyph-name="B" unicode="B" horiz-adv-x="628" 
d="M575 294q23 -37 23 -85q0 -58 -27 -98l-213 -111h-298l24 39v631l-24 39l278 4q132 0 188 -70q37 -43 37 -103q0 -54 -26 -94l-88 -48q39 -15 74 -44t52 -60zM385 616q-63 58 -157 54l1 -309l109 52q33 0 49 -2q39 36 39 101q0 64 -41 104zM408 70q40 39 40 102
q0 87 -67 133q-26 21 -68.5 36t-80.5 15h-3v-283q68 -10 107 -10q36 0 72 7z" />
    <glyph glyph-name="C" unicode="C" horiz-adv-x="601" 
d="M78 537l262 175q138 0 261 -97l-126 -86q-91 71 -197 71q-18 0 -38 -3q-61 -85 -61 -196q0 -73 27 -134q33 -72 107.5 -116.5t161.5 -48.5q79 0 126 10l-185 -124q-10 -1 -29 -1q-92 0 -169 53.5t-129 139.5q-50 86 -50 186q0 87 39 171z" />
    <glyph glyph-name="D" unicode="D" horiz-adv-x="668" 
d="M60 700h169q103 0 187.5 -40t129.5 -100q82 -100 82 -233q0 -95 -44 -165l-258 -162h-266l24 39v622zM229 646l1 -523q65 -28 135 -28q38 0 69 10q52 69 52 215q0 96 -28 158q-58 139 -229 168z" />
    <glyph glyph-name="E" unicode="E" horiz-adv-x="527" 
d="M399 614h-170v-221h253l-83 -86h-170v-221h253l-83 -86h-339l24 39v622l-24 39h422z" />
    <glyph glyph-name="F" unicode="F" horiz-adv-x="512" 
d="M399 614h-170v-221h253l-83 -86h-170v-268l24 -39h-193l24 39v622l-24 39h422z" />
    <glyph glyph-name="G" unicode="G" horiz-adv-x="655" 
d="M78 537l262 175q138 0 261 -97l-126 -86q-91 71 -197 71q-18 0 -38 -3q-61 -85 -61 -196q0 -73 27 -134q33 -72 107.5 -116.5t161.5 -48.5v211h-130l85 85h190v-274l-204 -136q-10 -1 -29 -1q-92 0 -169 53.5t-129 139.5q-50 86 -50 186q0 87 39 171z" />
    <glyph glyph-name="H" unicode="H" horiz-adv-x="714" 
d="M630 661v-622l24 -39h-193l24 39v269h-256v-269l24 -39h-193l24 39v622l-24 39h193l-24 -39v-268h256v268l-24 39h193z" />
    <glyph glyph-name="I" unicode="I" horiz-adv-x="313" 
d="M229 661v-622l24 -39h-193l24 39v622l-24 39h193z" />
    <glyph glyph-name="J" unicode="J" horiz-adv-x="404" 
d="M320 661v-569l-169 -103q-42 -4 -91 14.5t-80 44.5l101 112q49 -41 94 -45v546l-24 39h193z" />
    <glyph glyph-name="K" unicode="K" horiz-adv-x="592" 
d="M321 376l291 -376h-184l-198 260v-221l24 -39h-193l24 39l-1 622l-24 39h194l-24 -39v-259l229 298l104 1z" />
    <glyph glyph-name="L" unicode="L" horiz-adv-x="533" 
d="M229 661v-575h304l-83 -86h-390l24 39v622l-24 39h193z" />
    <glyph glyph-name="M" unicode="M" horiz-adv-x="885" 
d="M825 0h-193l24 39v407l-162 -445l1 -1h-155l-170 467v-428l24 -39h-134l24 39v622l-24 39h179l210 -573l207 573h169l-24 -39v-622z" />
    <glyph glyph-name="N" unicode="N" horiz-adv-x="726" 
d="M666 0h-192l-304 547v-508l24 -39h-134l24 39v622l-24 39h191l305 -547v508l-24 39h134l-24 -39v-622z" />
    <glyph glyph-name="O" unicode="O" horiz-adv-x="766" 
d="M78 537l262 175q100 0 178 -44t126 -108q82 -100 82 -233q0 -95 -44 -165l-266 -174q-10 -1 -29 -1q-92 0 -169 53.5t-129 139.5q-50 86 -50 186q0 87 39 171zM278 600q-18 0 -38 -3q-61 -85 -61 -196q0 -73 27 -134q32 -68 113 -117t170 -49q15 0 43 4q58 77 58 190
q0 69 -24 121q-33 75 -114 129.5t-174 54.5z" />
    <glyph glyph-name="P" unicode="P" horiz-adv-x="567" 
d="M60 712h258q109 -1 185 -73q54 -47 54 -145q0 -94 -44 -132l-201 -105q-4 -1 -15 -1q-42 0 -68 16v-233l24 -39h-193l24 39v634zM221 667v-256q19 -37 57.5 -58.5t73.5 -21.5q23 0 35 9q27 43 27 143q0 39 -20.5 79t-66 71.5t-106.5 33.5z" />
    <glyph glyph-name="Q" unicode="Q" horiz-adv-x="766" 
d="M726 326q0 -95 -44 -165l-44 -29q26 -45 37 -111l-123 -49q-7 38 -30 84l-106 -69q-10 -1 -29 -1q-92 0 -169 53.5t-129 139.5q-50 86 -50 186q0 87 39 171l262 175q100 0 178 -44t126 -108q82 -100 82 -233zM206 266q20 -42 62 -80l155 80q71 -6 135 -49q2 -1 9.5 -6
t10.5 -8q12 43 12 91q0 69 -24 121q-33 75 -114 129.5t-174 54.5q-18 0 -38 -3q-61 -85 -61 -196q0 -72 27 -134zM489 100h5q-8 12 -13 17q-45 47 -112 47q-30 0 -56 -11q84 -53 176 -53z" />
    <glyph glyph-name="R" unicode="R" horiz-adv-x="654" 
d="M229 39l24 -39h-193l24 39v634l-24 39h275q59 0 113 -24.5t79 -58.5q47 -54 47 -138q0 -83 -44 -121l-107 -59l173 -311h-165l-152 273l-50 12v-246zM229 670v-269q25 -26 62.5 -42.5t74.5 -16.5q19 0 34 4q27 64 27 131q0 29 -12 61t-35 61.5t-62.5 49t-88.5 21.5z" />
    <glyph glyph-name="S" unicode="S" horiz-adv-x="550" 
d="M318 712q67 0 125 -33t87 -81l-124 -80q-46 69 -167 69q-34 0 -70 -6q9 -50 61.5 -102.5t100.5 -73.5q76 -34 128 -107.5t65 -155.5l-226 -142q-33 -11 -70 -11q-65 0 -122.5 35t-85.5 81l124 80q18 -31 64.5 -52t99.5 -21q36 0 69 12q-3 48 -43 98.5t-110 76.5
q-68 31 -122.5 106.5t-73.5 157.5l231 142q28 7 59 7z" />
    <glyph glyph-name="T" unicode="T" horiz-adv-x="545" 
d="M460 614h-114v-575l24 -39h-193l24 39v575h-201l85 86h460z" />
    <glyph glyph-name="U" unicode="U" horiz-adv-x="697" 
d="M613 661v-622l24 -39h-169v92l-168 -107q-199 0 -232 147v538l-18 30h187l-24 -39v-464q0 -39 28.5 -70.5t72.5 -33.5q111 -7 154 70v498l-24 39h192z" />
    <glyph glyph-name="V" unicode="V" horiz-adv-x="663" 
d="M430 39l24 -39h-189l-265 700h158l213 -569l202 569h90z" />
    <glyph glyph-name="W" unicode="W" horiz-adv-x="1132" 
d="M899 39l24 -39h-189l-158 542l-147 -503l24 -39h-189l-264 700h157l213 -569l162 569h155l153 -569l202 569h90z" />
    <glyph glyph-name="X" unicode="X" horiz-adv-x="678" 
d="M406 352l218 -352h-171l-139 225l-163 -225h-110l224 305l-245 395h171l166 -269l198 269h103z" />
    <glyph glyph-name="Y" unicode="Y" horiz-adv-x="618" 
d="M378 355v-316l24 -39h-193l24 40v268l-243 392h171l166 -269l198 269h103z" />
    <glyph glyph-name="Z" unicode="Z" horiz-adv-x="628" 
d="M249 83h335l-88 -85h-456l334 617h-330l90 85h454z" />
    <glyph glyph-name="bracketleft" unicode="[" horiz-adv-x="394" 
d="M322 670h-70l-1 -884h102l-32 -52h-181v988h214z" />
    <glyph glyph-name="backslash" unicode="\" horiz-adv-x="413" 
d="M408 -93h-90l-313 823h90z" />
    <glyph glyph-name="bracketright" unicode="]" horiz-adv-x="394" 
d="M254 -266h-181l-32 52h102l-1 884h-70l-32 52h214v-988z" />
    <glyph glyph-name="underscore" unicode="_" horiz-adv-x="589" 
d="M549 -225h-509v84h509v-84z" />
    <glyph glyph-name="grave" unicode="`" horiz-adv-x="492" 
d="M172 588h-83l-159 187h130z" />
    <glyph glyph-name="a" unicode="a" horiz-adv-x="586" 
d="M58 372l209 129q109 0 171 -62l80 51v-451l24 -39h-162v65l-95 -76q-37 -3 -81 13.5t-75 42.5q-46 38 -72 94.5t-26 117.5q0 62 27 115zM222 405q-20 0 -31 -2q-39 -54 -39 -122q0 -17 5 -37q11 -64 65.5 -111t122.5 -47q17 0 34 3v240q-59 76 -157 76z" />
    <glyph glyph-name="b" unicode="b" horiz-adv-x="589" 
d="M502 395q57 -69 57 -161q0 -67 -32 -116l-212 -129q-7 -1 -22 -1q-77 0 -141 56l-72 -44v587l-25 24l165 101v-254l70 44q69 0 124 -31t88 -76zM408 86q40 55 40 120q0 40 -18 81q-23 51 -72.5 84t-111.5 33q-8 0 -26 -2v-245q60 -74 156 -74q16 0 32 3z" />
    <glyph glyph-name="c" unicode="c" horiz-adv-x="492" 
d="M58 372l210 129q63 2 121.5 -29.5t92.5 -80.5l-102 -62q-26 35 -68.5 55.5t-92.5 20.5q-9 0 -27 -2q-38 -51 -38 -117q0 -34 11 -69q13 -37 51 -78q54 -54 135 -54q38 0 71 13l-135 -108q-44 -4 -88.5 13.5t-74.5 45.5q-44 39 -69 95t-25 115q0 61 28 113z" />
    <glyph glyph-name="d" unicode="d" horiz-adv-x="597" 
d="M517 39l24 -39h-161v49l-92 -60q-2 0 -8 -0.5t-8 -0.5q-39 0 -79 15.5t-68 41.5q-45 38 -70.5 92.5t-25.5 113.5t27 115l208 135q49 3 115 -26v154l138 84v-674zM217 399q-15 0 -30 -3q-37 -52 -37 -114q0 -50 24 -95.5t65 -71.5q52 -32 109 -32q16 0 31 3v233
q-17 34 -64.5 57t-97.5 23z" />
    <glyph glyph-name="e" unicode="e" horiz-adv-x="544" 
d="M267 502q55 0 98.5 -15.5t73.5 -44t49.5 -56.5t35.5 -64l-103 -63h-263q0 -62 60 -120q55 -53 137 -53q33 0 69 11l-136 -108q-51 -2 -102 19.5t-77 56.5q-79 88 -79 195q0 61 28 114q20 12 94.5 57.5t114.5 70.5zM222 405q-10 0 -30 -2q-23 -32 -36 -82v-1h234
q-45 69 -116 80q-28 5 -52 5z" />
    <glyph glyph-name="f" unicode="f" horiz-adv-x="395" 
d="M337 490l-64 -62h-32v-389l24 -39h-188l24 39v389h-76v62h76v121l159 99q18 2 26 2q76 0 139 -53l-92 -90q-45 39 -92 44v-123h96z" />
    <glyph glyph-name="g" unicode="g" horiz-adv-x="484" 
d="M374 58q38 -6 59 -34.5t21 -63.5q0 -62 -40 -105q-32 -41 -90.5 -63t-120.5 -22q-49 0 -84 13q-36 10 -58.5 42.5t-22.5 71.5q0 11 1 17l94 55q-45 0 -76 27t-28 72l97 87q-32 30 -52.5 74.5t-20.5 90.5q0 49 23 89l154 93h185l-35 -42q55 -50 72 -135q3 -12 3 -26
q0 -55 -26 -91l-167 -102q-2 0 -6.5 -0.5t-6.5 -0.5q-43 0 -86 25l-63 -54q25 -14 102 -14l90 1q5 0 35.5 -0.5t46.5 -4.5zM182 422q-24 -39 -24 -84q0 -59 40 -105q49 -47 107 -47q11 0 23 3q24 34 24 78t-24 84q-47 72 -127 72q-12 0 -19 -1zM312 -143l37 11q2 9 2 26
q0 15 -1 22q-2 18 -16 33t-35 16q-25 1 -73 1h-70q-9 -19 -9 -37q0 -26 16.5 -46.5t39.5 -26.5q24 -7 52 -7q27 0 57 8z" />
    <glyph glyph-name="h" unicode="h" horiz-adv-x="605" 
d="M219 414l141 88q62 0 109.5 -25.5t66.5 -69.5v-368l24 -39h-186l24 39v295q0 28 -20 50t-51 23q-77 3 -108 -49v-319l24 -39h-187l24 39v548l-25 24l164 101v-298z" />
    <glyph glyph-name="i" unicode="i" horiz-adv-x="279" 
d="M138 700q28 0 49.5 -13.5t21.5 -43.5t-21.5 -43.5t-49.5 -13.5t-49.5 13.5t-21.5 43.5t21.5 43.5t49.5 13.5zM210 39l24 -39h-188l24 39v329l-25 24l166 97z" />
    <glyph glyph-name="j" unicode="j" horiz-adv-x="338" 
d="M212 700q28 0 49.5 -13.5t21.5 -43.5t-21.5 -43.5t-49.5 -13.5t-49.5 13.5t-21.5 43.5t21.5 43.5t49.5 13.5zM281 -131l-158 -97q-18 -2 -26 -2q-75 0 -137 53l90 89q47 -40 94 -44v502l-25 24l162 98v-623z" />
    <glyph glyph-name="k" unicode="k" horiz-adv-x="529" 
d="M218 283l182 166h100l-170 -166l199 -283h-171l-140 207v-168l24 -39h-186l24 39v551l-25 24l163 99v-430z" />
    <glyph glyph-name="l" unicode="l" horiz-adv-x="298" 
d="M219 39l24 -39h-188l24 39l2 548l-25 24l161 101z" />
    <glyph glyph-name="m" unicode="m" horiz-adv-x="882" 
d="M510 409l144 90q118 0 159 -94v-366l24 -39h-187l24 39v291q0 27 -17 48.5t-47 24.5q-69 4 -98 -48v-316l24 -39h-189l24 39v291q0 27 -17 48.5t-47 24.5q-68 4 -98 -48v-316l24 -39h-187l24 39v328l-25 21l165 102v-79l143 88q118 0 157 -90z" />
    <glyph glyph-name="n" unicode="n" horiz-adv-x="595" 
d="M209 414l141 88q62 0 109.5 -25.5t66.5 -69.5v-368l24 -39h-186l24 39v295q0 28 -20 50t-51 23q-77 3 -108 -49v-319l24 -39h-187l24 39v329l-25 24l164 101v-79z" />
    <glyph glyph-name="o" unicode="o" horiz-adv-x="566" 
d="M267 502l-210 -131q-61 -130 8 -250q39 -64 98 -102t129 -30l212 129q38 60 31 138.5t-56 138.5q-33 45 -88 76t-124 31zM192 402q72 10 131 -23.5t84 -91.5q23 -56 16 -107.5t-38 -93.5q-67 -11 -125.5 20.5t-84.5 84.5q-52 117 17 211z" />
    <glyph glyph-name="p" unicode="p" horiz-adv-x="581" 
d="M528 336q23 -49 23 -98q0 -57 -32 -118l-216 -132q-48 0 -93 20v-194l24 -39h-189l24 39l2 554l-25 24l163 99l1 -36l73 48q175 -10 245 -167zM400 89q38 60 38 122q0 77 -57 135.5t-137 58.5q-16 0 -33 -3l-1 -238q64 -77 160 -77q20 0 30 2z" />
    <glyph glyph-name="q" unicode="q" horiz-adv-x="589" 
d="M57 372l209 129q103 0 169 -64l84 53l1 -676l24 -39h-189l24 39l2 236l-91 -61q-62 -4 -120 30t-90 85q-50 74 -50 153q0 58 27 115zM218 406q-9 0 -27 -2q-37 -46 -37 -111q-2 -81 52 -142t155 -61q3 0 10 0.5t10 0.5v236q-30 38 -65 56q-48 23 -98 23z" />
    <glyph glyph-name="r" unicode="r" horiz-adv-x="399" 
d="M70 366v-327l-24 -39h188l-24 39v363q36 17 67.5 9t46.5 -33l85 72q-29 42 -103 55l-96 -61v47l-165 -101z" />
    <glyph glyph-name="s" unicode="s" horiz-adv-x="440" 
d="M253 502q51 0 95.5 -25.5t66.5 -62.5l-95 -61q-37 55 -127 55q-22 0 -50 -5q5 -38 42.5 -69t80.5 -47q55 -20 95 -69t53 -111l-177 -110q-27 -9 -53 -9q-50 0 -94 27t-65 62l95 61q14 -24 50 -40.5t76 -16.5q27 0 51 9q-5 36 -37.5 67.5t-79.5 45.5q-57 16 -98.5 67
t-55.5 115l182 111q22 6 45 6z" />
    <glyph glyph-name="t" unicode="t" horiz-adv-x="351" 
d="M319 430h-78v-391l24 -39h-188l24 39v391h-76v60h77v42l-25 24l162 96v-162h142z" />
    <glyph glyph-name="u" unicode="u" horiz-adv-x="601" 
d="M532 39l24 -39h-165v74l-144 -89q-61 0 -109.5 25.5t-67.5 70.5v288l-25 24l166 97v-334q2 -35 23 -55t60 -20q28 0 57 13.5t41 35.5v230l-25 24l165 106v-451z" />
    <glyph glyph-name="v" unicode="v" horiz-adv-x="532" 
d="M180 0h163l-23 37l202 453h-83l-156 -348l-124 348h-149z" />
    <glyph glyph-name="w" unicode="w" horiz-adv-x="807" 
d="M186 0h158l-24 39l88 272l111 -311h157l-23 38v1l144 451h-84l-103 -325l-115 325h-114l-106 -324l-116 324h-149z" />
    <glyph glyph-name="x" unicode="x" horiz-adv-x="485" 
d="M111 0l109 151l93 -151h162l-167 273l157 217h-97l-105 -144l-88 144h-164l163 -265l-164 -225h101z" />
    <glyph glyph-name="y" unicode="y" horiz-adv-x="486" 
d="M192 2l-101 -227h87l318 715h-88l-136 -308l-110 308h-152z" />
    <glyph glyph-name="z" unicode="z" horiz-adv-x="449" 
d="M200 59h239l-61 -59h-366l231 427h-233l65 63h358z" />
    <glyph glyph-name="braceleft" unicode="{" horiz-adv-x="495" 
d="M404 614h-34q-40 0 -60.5 -17.5t-21.5 -70.5l-2 -183q0 -42 -29 -72.5t-69 -32.5q40 -2 69 -32.5t29 -72.5l2 -183q1 -53 21.5 -70.5t60.5 -17.5h34l1 -89h-11q-30 0 -47 0.5t-46.5 4.5t-47.5 11.5t-34.5 23t-22.5 38.5q-10 37 -10 191v40q0 109 -92 115h-44v82h44
q92 6 92 115v40q0 154 10 191q7 28 27.5 45t54.5 23.5t56 8t60 1.5h11z" />
    <glyph glyph-name="braceright" unicode="}" horiz-adv-x="495" 
d="M91 614l-1 89h11q30 0 47 -0.5t46.5 -4.5t47.5 -11.5t34.5 -23t22.5 -38.5q10 -37 10 -191v-40q0 -109 92 -115h44v-82h-44q-92 -6 -92 -115v-40q0 -154 -10 -191q-7 -28 -27.5 -45t-54.5 -23.5t-56 -8t-60 -1.5h-11l1 89h34q40 0 60.5 17.5t21.5 70.5l2 183
q0 42 29 72.5t69 32.5q-40 2 -69 32.5t-29 72.5l-2 183q-1 53 -21.5 70.5t-60.5 17.5h-34z" />
    <glyph glyph-name="dieresis" unicode="&#xa8;" horiz-adv-x="600" 
d="M205 700q25 0 45 -12.5t20 -39.5q0 -26 -20 -38.5t-45 -12.5t-45 12.5t-20 38.5q0 27 20 39.5t45 12.5zM375 700q25 0 45 -12.5t20 -39.5q0 -26 -20 -38.5t-45 -12.5t-45 12.5t-20 38.5q0 27 20 39.5t45 12.5z" />
    <glyph glyph-name="guillemotleft" unicode="&#xab;" horiz-adv-x="552" 
d="M303 432l-130 -133l130 -130l-59 -58l-174 189l174 190zM512 432l-130 -133l130 -130l-59 -58l-174 189l174 190z" />
    <glyph glyph-name="acute" unicode="&#xb4;" horiz-adv-x="492" 
d="M126 590h-83l112 185h130z" />
    <glyph glyph-name="cedilla" unicode="&#xb8;" horiz-adv-x="600" 
d="M324 5l-30 -51h8q115 0 115 -94q0 -92 -129 -92q-51 0 -126 20v58q86 -20 125 -20q49 0 49 37q0 44 -90 44q-16 0 -25 -1l62 121z" />
    <glyph glyph-name="guillemotright" unicode="&#xbb;" horiz-adv-x="552" 
d="M273 300l-174 -189l-59 58l130 130l-130 133l59 58zM482 300l-174 -189l-59 58l130 130l-130 133l59 58z" />
    <glyph glyph-name="Agrave" unicode="&#xc0;" 
d="M391 771h-83l-159 187h130zM662 0h-158l-91 242h-238l-86 -242h-90l233 661l-24 39h189zM206 328h176l-90 241z" />
    <glyph glyph-name="Aacute" unicode="&#xc1;" 
d="M321 771h-83l112 185h130zM662 0h-158l-91 242h-238l-86 -242h-90l233 661l-24 39h189zM206 328h176l-90 241z" />
    <glyph glyph-name="Acircumflex" unicode="&#xc2;" 
d="M479 788l-90 -25l-79 109l-75 -109l-94 26l129 161h82zM662 0h-158l-91 242h-238l-86 -242h-90l233 661l-24 39h189zM206 328h176l-90 241z" />
    <glyph glyph-name="Adieresis" unicode="&#xc4;" 
d="M215 878q25 0 45 -12.5t20 -39.5q0 -26 -20 -38.5t-45 -12.5t-45 12.5t-20 38.5q0 27 20 39.5t45 12.5zM385 878q25 0 45 -12.5t20 -39.5q0 -26 -20 -38.5t-45 -12.5t-45 12.5t-20 38.5q0 27 20 39.5t45 12.5zM662 0h-158l-91 242h-238l-86 -242h-90l233 661l-24 39h189z
M206 328h176l-90 241z" />
    <glyph glyph-name="Egrave" unicode="&#xc8;" horiz-adv-x="527" 
d="M368 771h-83l-159 187h130zM399 614h-170v-221h253l-83 -86h-170v-221h253l-83 -86h-339l24 39v622l-24 39h422z" />
    <glyph glyph-name="Eacute" unicode="&#xc9;" horiz-adv-x="527" 
d="M279 771h-83l112 185h130zM399 614h-170v-221h253l-83 -86h-170v-221h253l-83 -86h-339l24 39v622l-24 39h422z" />
    <glyph glyph-name="Ecircumflex" unicode="&#xca;" horiz-adv-x="527" 
d="M456 799l-90 -25l-79 109l-75 -109l-94 26l129 161h82zM399 614h-170v-221h253l-83 -86h-170v-221h253l-83 -86h-339l24 39v622l-24 39h422z" />
    <glyph glyph-name="Edieresis" unicode="&#xcb;" horiz-adv-x="527" 
d="M186 876q25 0 45 -12.5t20 -39.5q0 -26 -20 -38.5t-45 -12.5t-45 12.5t-20 38.5q0 27 20 39.5t45 12.5zM356 876q25 0 45 -12.5t20 -39.5q0 -26 -20 -38.5t-45 -12.5t-45 12.5t-20 38.5q0 27 20 39.5t45 12.5zM399 614h-170v-221h253l-83 -86h-170v-221h253l-83 -86h-339
l24 39v622l-24 39h422z" />
    <glyph glyph-name="Igrave" unicode="&#xcc;" horiz-adv-x="313" 
d="M272 771h-83l-159 187h130zM229 661v-622l24 -39h-193l24 39v622l-24 39h193z" />
    <glyph glyph-name="Iacute" unicode="&#xcd;" horiz-adv-x="313" 
d="M129 771h-83l112 185h130zM229 661v-622l24 -39h-193l24 39v622l-24 39h193z" />
    <glyph glyph-name="Icircumflex" unicode="&#xce;" horiz-adv-x="313" 
d="M324 788l-90 -25l-79 109l-75 -109l-94 26l129 161h82zM229 661v-622l24 -39h-193l24 39v622l-24 39h193z" />
    <glyph glyph-name="Idieresis" unicode="&#xcf;" horiz-adv-x="313" 
d="M67 872q25 0 45 -12.5t20 -39.5q0 -26 -20 -38.5t-45 -12.5t-45 12.5t-20 38.5q0 27 20 39.5t45 12.5zM237 872q25 0 45 -12.5t20 -39.5q0 -26 -20 -38.5t-45 -12.5t-45 12.5t-20 38.5q0 27 20 39.5t45 12.5zM229 661v-622l24 -39h-193l24 39v622l-24 39h193z" />
    <glyph glyph-name="agrave" unicode="&#xe0;" horiz-adv-x="586" 
d="M344 588h-83l-159 187h130zM58 372l209 129q109 0 171 -62l80 51v-451l24 -39h-162v65l-95 -76q-37 -3 -81 13.5t-75 42.5q-46 38 -72 94.5t-26 117.5q0 62 27 115zM222 405q-20 0 -31 -2q-39 -54 -39 -122q0 -17 5 -37q11 -64 65.5 -111t122.5 -47q17 0 34 3v240
q-59 76 -157 76z" />
    <glyph glyph-name="aacute" unicode="&#xe1;" horiz-adv-x="586" 
d="M265 590h-83l112 185h130zM58 372l209 129q109 0 171 -62l80 51v-451l24 -39h-162v65l-95 -76q-37 -3 -81 13.5t-75 42.5q-46 38 -72 94.5t-26 117.5q0 62 27 115zM222 405q-20 0 -31 -2q-39 -54 -39 -122q0 -17 5 -37q11 -64 65.5 -111t122.5 -47q17 0 34 3v240
q-59 76 -157 76z" />
    <glyph glyph-name="acircumflex" unicode="&#xe2;" horiz-adv-x="586" 
d="M433 613l-90 -25l-79 109l-75 -109l-94 26l129 161h82zM58 372l209 129q109 0 171 -62l80 51v-451l24 -39h-162v65l-95 -76q-37 -3 -81 13.5t-75 42.5q-46 38 -72 94.5t-26 117.5q0 62 27 115zM222 405q-20 0 -31 -2q-39 -54 -39 -122q0 -17 5 -37q11 -64 65.5 -111
t122.5 -47q17 0 34 3v240q-59 76 -157 76z" />
    <glyph glyph-name="ccedilla" unicode="&#xe7;" horiz-adv-x="492" 
d="M422 98l-135 -108q-35 -3 -73 8l-21 -36h8q115 0 115 -94q0 -92 -129 -92q-51 0 -126 20v58q86 -20 125 -20q49 0 49 37q0 44 -90 44q-16 0 -25 -1l52 101q-32 17 -48 34q-44 39 -69 95t-25 115q0 61 28 113l210 129q63 2 121.5 -29.5t92.5 -80.5l-102 -62
q-26 35 -68.5 55.5t-92.5 20.5q-9 0 -27 -2q-38 -51 -38 -117q0 -34 11 -69q13 -37 51 -78q54 -54 135 -54q38 0 71 13z" />
    <glyph glyph-name="egrave" unicode="&#xe8;" horiz-adv-x="544" 
d="M352 588h-83l-159 187h130zM267 502q55 0 98.5 -15.5t73.5 -44t49.5 -56.5t35.5 -64l-103 -63h-263q0 -62 60 -120q55 -53 137 -53q33 0 69 11l-136 -108q-51 -2 -102 19.5t-77 56.5q-79 88 -79 195q0 61 28 114q20 12 94.5 57.5t114.5 70.5zM222 405q-10 0 -30 -2
q-23 -32 -36 -82v-1h234q-45 69 -116 80q-28 5 -52 5z" />
    <glyph glyph-name="eacute" unicode="&#xe9;" horiz-adv-x="544" 
d="M269 590h-83l112 185h130zM267 502q55 0 98.5 -15.5t73.5 -44t49.5 -56.5t35.5 -64l-103 -63h-263q0 -62 60 -120q55 -53 137 -53q33 0 69 11l-136 -108q-51 -2 -102 19.5t-77 56.5q-79 88 -79 195q0 61 28 114q20 12 94.5 57.5t114.5 70.5zM222 405q-10 0 -30 -2
q-23 -32 -36 -82v-1h234q-45 69 -116 80q-28 5 -52 5z" />
    <glyph glyph-name="ecircumflex" unicode="&#xea;" horiz-adv-x="544" 
d="M427 613l-90 -25l-79 109l-75 -109l-94 26l129 161h82zM267 502q55 0 98.5 -15.5t73.5 -44t49.5 -56.5t35.5 -64l-103 -63h-263q0 -62 60 -120q55 -53 137 -53q33 0 69 11l-136 -108q-51 -2 -102 19.5t-77 56.5q-79 88 -79 195q0 61 28 114q20 12 94.5 57.5t114.5 70.5z
M222 405q-10 0 -30 -2q-23 -32 -36 -82v-1h234q-45 69 -116 80q-28 5 -52 5z" />
    <glyph glyph-name="edieresis" unicode="&#xeb;" horiz-adv-x="544" 
d="M205 700q25 0 45 -12.5t20 -39.5q0 -26 -20 -38.5t-45 -12.5t-45 12.5t-20 38.5q0 27 20 39.5t45 12.5zM375 700q25 0 45 -12.5t20 -39.5q0 -26 -20 -38.5t-45 -12.5t-45 12.5t-20 38.5q0 27 20 39.5t45 12.5zM267 502q55 0 98.5 -15.5t73.5 -44t49.5 -56.5t35.5 -64
l-103 -63h-263q0 -62 60 -120q55 -53 137 -53q33 0 69 11l-136 -108q-51 -2 -102 19.5t-77 56.5q-79 88 -79 195q0 61 28 114q20 12 94.5 57.5t114.5 70.5zM222 405q-10 0 -30 -2q-23 -32 -36 -82v-1h234q-45 69 -116 80q-28 5 -52 5z" />
    <glyph glyph-name="icircumflex" unicode="&#xee;" horiz-adv-x="428" 
d="M383 612l-90 -25l-79 109l-75 -109l-94 26l129 161h82zM121 392l25 -24v-329l-24 -39h188l-24 39l1 450z" />
    <glyph glyph-name="circumflex" unicode="&#x2c6;" horiz-adv-x="600" 
d="M453 613l-90 -25l-79 109l-75 -109l-94 26l129 161h82z" />
    <glyph glyph-name="ring" unicode="&#x2da;" horiz-adv-x="291" 
d="M145 776q53 0 89 -37q37 -36 37 -89q0 -52 -37 -89q-36 -37 -89 -37t-89 36q-36 38 -36 90q0 53 36 89q37 37 89 37zM146 712q-26 0 -44.5 -18t-18.5 -44t18.5 -44.5t44.5 -18.5t44 18.5t18 44.5t-18 44t-44 18z" />
    <glyph glyph-name="endash" unicode="&#x2013;" horiz-adv-x="606" 
d="M566 196h-526v84h526v-84z" />
    <glyph glyph-name="emdash" unicode="&#x2014;" horiz-adv-x="1129" 
d="M1089 197h-1049v84h1049v-84z" />
    <glyph glyph-name="quotedblleft" unicode="&#x201c;" horiz-adv-x="526" 
d="M224 732l24 -40q-26 -19 -38 -49q-11 -24 -11 -56q0 -37 16 -69l-91 -56q-5 7 -15 18t-15 17.5t-9.5 17.5t-4.5 23q0 29 11.5 61.5t23 51.5t16.5 21zM422 732l24 -40q-29 -22 -38 -49q-10 -22 -10 -56q0 -36 15 -69l-92 -56q-24 34 -24 94q0 27 6.5 54.5t14 43.5t12.5 18
z" />
    <glyph glyph-name="quotedblright" unicode="&#x201d;" horiz-adv-x="526" 
d="M131 675l92 56q25 -36 25 -94q0 -27 -6.5 -54.5t-14.5 -43.5t-12 -18l-93 -60l-42 18q48 46 57 71q10 22 10 55q0 38 -16 70zM329 675l91 56q26 -35 26 -94q0 -26 -7 -54t-14.5 -44t-11.5 -18l-93 -60l-23 40q27 20 38 49q10 22 10 55q0 38 -16 70z" />
    <glyph glyph-name="guilsinglleft" unicode="&#x2039;" horiz-adv-x="342" 
d="M302 432l-130 -133l130 -130l-59 -58l-173 189l173 190z" />
    <glyph glyph-name="guilsinglright" unicode="&#x203a;" horiz-adv-x="342" 
d="M272 300l-173 -189l-59 58l130 130l-130 133l59 58z" />
    </font>
</defs>
</svg>
